<svg xmlns="http://www.w3.org/2000/svg" width="180" height="132" viewBox="0 0 80 32"><title>logo</title><path d="M24.48 24.8c-1.12 2.24-3.12 4.88-6.4 7.2L.4 12.4c-.56-.64-.48-1.76.16-2.32L13.36.8c.72-.48 1.76-.32 2.24.4l1.2 1.84h-.88V24.8h8.56z"/><path d="M26.16 19.52c0 .32-.08.8-.24 1.28H20V7.68l5.2 7.68c.16.24.4.64.48 1.04.24.72.4 1.44.48 2.08 0 0 .16.4 0 1.04z"/><path d="M41.36 12.56c-.72-1.36-1.76-2.32-3.12-3.12-1.36-.72-2.8-1.2-4.24-1.2-2.08 0-3.92.72-5.52 2.16-1.76 1.6-2.72 3.6-2.8 6v.32c0 .96.16 1.92.48 2.8.4 1.2 1.04 2.24 2 3.12 1.6 1.6 3.6 2.4 5.84 2.4 1.6 0 2.96-.24 4.24-1.04 1.36-.72 2.32-1.76 3.12-3.12.72-1.36 1.12-2.8 1.12-4.24 0-1.36-.4-2.72-1.12-4.08zM37.2 20c-.8.88-1.92 1.36-3.2 1.36s-2.24-.4-3.12-1.28c-.8-.8-1.28-1.92-1.28-3.36 0-1.36.4-2.48 1.28-3.36.8-.8 1.92-1.36 3.2-1.36s2.24.48 3.12 1.28c.8.8 1.28 2 1.28 3.36C38.4 18 38 19.2 37.2 20zM55.28 8.72v1.76c-.72-.72-1.6-1.36-2.4-1.68s-1.68-.48-2.64-.48c-2 0-3.68.64-5.12 2.08-1.6 1.52-2.32 3.6-2.32 6.16 0 2.32.72 4.24 2.24 5.84s3.28 2.32 5.44 2.32c.96 0 1.76-.24 2.56-.48s1.6-.8 2.24-1.52c0 1.36-.08 2.24-.4 2.8-.32.48-.8.88-1.44 1.28-.64.32-1.52.48-2.64.48-.88 0-1.6-.08-2.16-.32s-1.12-.56-1.52-1.04h-4.4c.4 1.12 1.04 2 1.68 2.8.64.72 1.68 1.36 2.64 1.76 1.04.4 2.32.56 3.92.56 2.96 0 5.2-.8 6.64-2.56 1.12-1.28 1.68-3.28 1.68-5.92V8.72h-4zm-.88 11.04c-.8.8-1.84 1.28-3.12 1.28s-2.32-.4-3.2-1.28-1.28-1.92-1.28-3.28c0-1.28.48-2.32 1.28-3.2.72-.88 1.84-1.28 3.12-1.28s2.32.32 3.2 1.2c.8.88 1.28 1.92 1.28 3.28-.08 1.36-.48 2.48-1.28 3.28zM75.44 12.56c-.72-1.36-1.76-2.32-3.12-3.12-1.36-.72-2.8-1.2-4.24-1.2-2.08 0-3.92.72-5.52 2.16-1.84 1.68-2.8 3.76-2.8 6.24 0 2.32.8 4.4 2.4 5.92 1.6 1.6 3.6 2.4 5.84 2.4 1.6 0 2.96-.24 4.24-1.04 1.36-.72 2.32-1.76 3.12-3.12.72-1.36 1.12-2.8 1.12-4.24.16-1.28-.24-2.64-1.04-4zm-4 7.44c-.8.88-1.92 1.36-3.2 1.36s-2.24-.4-3.12-1.28c-.8-.8-1.28-1.92-1.28-3.36 0-1.36.4-2.48 1.28-3.36.8-.96 1.84-1.36 3.12-1.36s2.24.48 3.2 1.28c.8.8 1.28 2 1.28 3.36-.08 1.36-.48 2.56-1.28 3.36zM78 20.56c.64 0 1.2.24 1.68.64s.64 1.04.64 1.6-.24 1.2-.64 1.68-1.04.64-1.68.64c-.64 0-1.2-.24-1.68-.64s-.64-1.04-.64-1.68c0-.64.24-1.2.64-1.6s.96-.64 1.68-.64z"/></svg>