<?xml version="1.0" encoding="utf-8"?>
<!-- Generator: Adobe Illustrator 18.1.1, SVG Export Plug-In . SVG Version: 6.00 Build 0)  -->
<svg version="1.1" id="Layer_1" xmlns="http://www.w3.org/2000/svg" xmlns:xlink="http://www.w3.org/1999/xlink" x="0px" y="0px"
	 viewBox="0 37.5 200 25" enable-background="new 0 37.5 200 25" xml:space="preserve">
<g>
	<path fill="#FFFFFF" d="M45.4,56.6L45.4,56.6c-1.3,0-2.4-1.1-2.4-2.4v-1.9c0-1.3,1.1-2.4,2.4-2.4l0,0c1.3,0,2.4,1.1,2.4,2.4v1.9
		C47.8,55.6,46.7,56.6,45.4,56.6z"/>
	<path fill="#FFFFFF" d="M7.5,47.7v7.6c0,1.3,1.1,2.4,2.4,2.4s2.4-1.1,2.4-2.4v-1.9c0-0.3,0.1-0.6,0.3-0.8s0.5-0.3,0.8-0.3
		c0.7,0,1.2,0.5,1.2,1.2v8.7c0,1.3,1.1,2.4,2.4,2.4s2.4-1.1,2.4-2.4v-11c0-0.3,0.1-0.6,0.3-0.8c0.2-0.2,0.5-0.3,0.8-0.3
		c0.7,0,1.2,0.5,1.2,1.2v5.9c0,1.3,1.1,2.4,2.4,2.4s2.4-1.1,2.4-2.4v-0.8c0-0.3,0.1-0.6,0.3-0.8c0.2-0.2,0.5-0.3,0.8-0.3
		c0.7,0,1.2,0.5,1.2,1.2v0.8c0,1.3,1.1,2.4,2.4,2.4s2.4-1.1,2.4-2.4v-4c0-0.3,0.1-0.6,0.3-0.8s0.5-0.3,0.8-0.3
		c0.7,0,1.2,0.5,1.2,1.2v2.8c0,1.3,1.1,2.4,2.4,2.4c1.3,0,2.4-1.1,2.4-2.4v-8.5c0-0.6-0.2-1.3-0.7-1.7c-0.4-0.4-1-0.7-1.7-0.7
		c-1.3,0-2.4,1.1-2.4,2.4v0.4c0,0.7-0.5,1.2-1.2,1.2s-1.2-0.5-1.2-1.2v-6.7c0-0.6-0.2-1.3-0.7-1.7s-1-0.7-1.7-0.7
		c-1.3,0-2.4,1.1-2.4,2.4v9.9c0,0.7-0.5,1.2-1.2,1.2s-1.2-0.5-1.2-1.2V39.5c0-0.6-0.2-1.3-0.7-1.7c-0.4-0.4-1-0.7-1.7-0.7
		c-1.3,0-2.4,1.1-2.4,2.4v6.7c0,0.7-0.5,1.2-1.2,1.2c-0.6,0-1.2-0.5-1.2-1.2v-2.8c0-0.6-0.2-1.3-0.7-1.7c-0.4-0.4-1-0.7-1.7-0.7
		c-1.3,0-2.4,1.1-2.4,2.4v5.1c0,0.7-0.5,1.2-1.2,1.2s-1.2-0.5-1.2-1.2v-0.8c0-0.6-0.2-1.3-0.7-1.7c-0.4-0.4-1-0.7-1.7-0.7
		C8.5,45.3,7.5,46.3,7.5,47.7z"/>
</g>
<g>
	<path fill="#FFFFFF" d="M54,54.8l-0.7,3.1h-0.8l3.1-14h1.3l3.1,14h-1l-0.7-3.1H54z M54.1,54h4.1l-2.1-9.1L54.1,54z"/>
	<path fill="#FFFFFF" d="M64.1,44.7l-0.4,9.8c-0.1,1.9-0.4,3.4-2.5,3.4H61v-0.8c1.6,0,1.7-1.2,1.7-2.6l0.4-10.6h5.2v14h-0.9V44.7
		H64.1z"/>
	<path fill="#FFFFFF" d="M74.9,50.4v0.8h-3.8v5.9h4.6v0.8h-5.5v-14h5.5v0.8h-4.6v5.6h3.8V50.4z"/>
	<path fill="#FFFFFF" d="M79.1,51.3l-1,1.5v5.1h-0.9v-14h0.9v7.4l4.6-7.4h1l-4,6.5l4.3,7.5h-1L79.1,51.3z"/>
	<path fill="#FFFFFF" d="M91.3,47.3v1.2h-0.9v-1.3c0-1.5-0.6-2.6-2.1-2.6s-2.1,1.1-2.1,2.6v7.3c0,1.5,0.6,2.6,2.1,2.6
		s2.1-1.1,2.1-2.6v-1.7h0.9v1.6c0,2-0.9,3.5-3,3.5s-3-1.5-3-3.5v-7.2c0-2,0.9-3.5,3-3.5S91.3,45.3,91.3,47.3z"/>
	<path fill="#FFFFFF" d="M94.1,54.8l-0.7,3.1h-0.8l3.1-14H97l3.1,14h-0.9l-0.7-3.1H94.1z M94.2,54h4.1l-2.1-9.1L94.2,54z"/>
	<path fill="#FFFFFF" d="M102.4,51.3v6.6h-0.9v-14h0.9v6.6h4.4v-6.6h0.9v14h-0.9v-6.6H102.4z"/>
	<path fill="#FFFFFF" d="M116.7,59.8v-1.9H110v1.9h-0.9V57h1c0.6-0.6,0.7-1.3,0.7-2.2l0.6-10.9h5.1v13.2h1.2v2.8h-1
		C116.7,59.9,116.7,59.8,116.7,59.8z M111.7,54.8c-0.1,1-0.1,1.7-0.7,2.2h4.5V44.7h-3.3L111.7,54.8z"/>
	<path fill="#FFFFFF" d="M122,43.9c2.2,0,3,1.4,3,3.4v1.5c0,2.2-1,3.3-3.2,3.3h-1.7v5.8h-0.9v-14C119.2,43.9,122,43.9,122,43.9z
		 M121.8,51.3c1.6,0,2.3-0.7,2.3-2.4v-1.7c0-1.5-0.5-2.5-2.1-2.5h-2v6.6C120,51.3,121.8,51.3,121.8,51.3z"/>
	<path fill="#FFFFFF" d="M130.5,44.7v13.2h-0.9v-14h6.2v14h-0.9V44.7H130.5z"/>
	<path fill="#FFFFFF" d="M138.7,54.8l-0.7,3.1h-0.8l3.1-14h1.3l3.1,14h-0.9l-0.7-3.1H138.7z M138.9,54h4.1l-2.1-9.1L138.9,54z"/>
	<path fill="#FFFFFF" d="M147,43.9v13.2h3.5V43.9h0.9v13.2h3.5V43.9h0.9v14h-9.7v-14C146.1,43.9,147,43.9,147,43.9z"/>
	<path fill="#FFFFFF" d="M162.2,50.4v0.8h-3.8v5.9h4.6v0.8h-5.5v-14h5.5v0.8h-4.6v5.6h3.8V50.4z"/>
	<path fill="#FFFFFF" d="M165.4,51.3v6.6h-0.9v-14h0.9v6.6h4.4v-6.6h0.9v14h-0.9v-6.6H165.4z"/>
	<path fill="#FFFFFF" d="M179,59.8v-1.9h-6.5v-14h0.9v13.2h4.4V43.9h0.9v13.2h1.2v2.7C179.9,59.8,179,59.8,179,59.8z"/>
	<path fill="#FFFFFF" d="M186.2,50.4v0.8h-3.8v5.9h4.6v0.8h-5.5v-14h5.5v0.8h-4.6v5.6h3.8V50.4z"/>
	<path fill="#FFFFFF" d="M191.4,43.9c2.1,0,2.9,1,2.9,3v0.8c0,1.5-0.4,2.5-1.8,2.8c1.5,0.3,2.1,1.4,2.1,3v1.2c0,2-0.9,3.2-3.1,3.2
		h-3v-14C188.5,43.9,191.4,43.9,191.4,43.9z M190.9,50.1c1.6,0,2.4-0.4,2.4-2.2V47c0-1.5-0.5-2.2-2-2.2h-2v5.3
		C189.3,50.1,190.9,50.1,190.9,50.1z M191.4,57.1c1.5,0,2.1-0.9,2.1-2.4v-1.3c0-1.8-0.8-2.5-2.5-2.5h-1.7v6.2H191.4z"/>
</g>
</svg>
