<svg style="position: absolute; width: 0; height: 0; overflow: hidden;" version="1.1" xmlns="http://www.w3.org/2000/svg" xmlns:xlink="http://www.w3.org/1999/xlink">
<defs>
<symbol id="icon-rub" viewBox="0 0 32 32">
<title>rub</title>
<path d="M2.1 26.9h5.1v4.4c0 0.2 0.1 0.4 0.2 0.5 0.2 0.2 0.4 0.2 0.6 0.2h3.8c0.2 0 0.4-0.1 0.5-0.2s0.2-0.3 0.2-0.5v-4.4h11.5c0.2 0 0.4-0.1 0.5-0.2s0.2-0.3 0.2-0.5v-2.9c0-0.2-0.1-0.4-0.2-0.5s-0.3-0.2-0.5-0.2h-11.5v-2.7h7.7c3 0 5.5-0.9 7.4-2.8s2.9-4.2 2.9-7.2c0-2.9-1-5.3-2.9-7.2-1.8-1.8-4.3-2.7-7.3-2.7h-12.3c-0.2 0-0.4 0.1-0.5 0.2s-0.2 0.3-0.2 0.5v14.3h-5.1c-0.2 0-0.4 0.1-0.5 0.2s-0.2 0.3-0.2 0.5v3.4c0 0.2 0.1 0.4 0.2 0.5s0.3 0.2 0.5 0.2h5.1v2.7h-5.1c-0.2 0-0.4 0.1-0.5 0.2s-0.2 0.3-0.2 0.5v2.9c0 0.2 0.1 0.4 0.2 0.5 0.1 0.3 0.2 0.3 0.4 0.3zM12.5 4.8h7.3c1.6 0 2.9 0.5 3.9 1.4s1.5 2.2 1.5 3.7c0 1.5-0.5 2.8-1.5 3.7s-2.3 1.4-3.9 1.4h-7.3v-10.2z"></path>
</symbol>
<symbol id="icon-logo" viewBox="0 0 80 32">
<title>logo</title>
<path d="M24.48 24.8c-1.12 2.24-3.12 4.88-6.4 7.2l-17.68-19.6c-0.56-0.64-0.48-1.76 0.16-2.32l12.8-9.28c0.72-0.48 1.76-0.32 2.24 0.4l1.2 1.84h-0.88v21.76h8.56z"></path>
<path d="M26.16 19.52c0 0.32-0.080 0.8-0.24 1.28h-5.92v-13.12l5.2 7.68c0.16 0.24 0.4 0.64 0.48 1.040 0.24 0.72 0.4 1.44 0.48 2.080 0 0 0.16 0.4 0 1.040z"></path>
<path d="M41.36 12.56c-0.72-1.36-1.76-2.32-3.12-3.12-1.36-0.72-2.8-1.2-4.24-1.2-2.080 0-3.92 0.72-5.52 2.16-1.76 1.6-2.72 3.6-2.8 6 0 0.080 0 0.16 0 0.32 0 0.96 0.16 1.92 0.48 2.8 0.4 1.2 1.040 2.24 2 3.12 1.6 1.6 3.6 2.4 5.84 2.4 1.6 0 2.96-0.24 4.24-1.040 1.36-0.72 2.32-1.76 3.12-3.12 0.72-1.36 1.12-2.8 1.12-4.24 0-1.36-0.4-2.72-1.12-4.080zM37.2 20c-0.8 0.88-1.92 1.36-3.2 1.36s-2.24-0.4-3.12-1.28c-0.8-0.8-1.28-1.92-1.28-3.36 0-1.36 0.4-2.48 1.28-3.36 0.8-0.8 1.92-1.36 3.2-1.36s2.24 0.48 3.12 1.28c0.8 0.8 1.28 2 1.28 3.36-0.080 1.36-0.48 2.56-1.28 3.36z"></path>
<path d="M55.28 8.72v1.76c-0.72-0.72-1.6-1.36-2.4-1.68s-1.68-0.48-2.64-0.48c-2 0-3.68 0.64-5.12 2.080-1.6 1.52-2.32 3.6-2.32 6.16 0 2.32 0.72 4.24 2.24 5.84s3.28 2.32 5.44 2.32c0.96 0 1.76-0.24 2.56-0.48s1.6-0.8 2.24-1.52c0 1.36-0.080 2.24-0.4 2.8-0.32 0.48-0.8 0.88-1.44 1.28-0.64 0.32-1.52 0.48-2.64 0.48-0.88 0-1.6-0.080-2.16-0.32s-1.12-0.56-1.52-1.040h-4.4c0.4 1.12 1.040 2 1.68 2.8 0.64 0.72 1.68 1.36 2.64 1.76 1.040 0.4 2.32 0.56 3.92 0.56 2.96 0 5.2-0.8 6.64-2.56 1.12-1.28 1.68-3.28 1.68-5.92v-13.84h-4zM54.4 19.76c-0.8 0.8-1.84 1.28-3.12 1.28s-2.32-0.4-3.2-1.28-1.28-1.92-1.28-3.28c0-1.28 0.48-2.32 1.28-3.2 0.72-0.88 1.84-1.28 3.12-1.28s2.32 0.32 3.2 1.2c0.8 0.88 1.28 1.92 1.28 3.28-0.080 1.36-0.48 2.48-1.28 3.28z"></path>
<path d="M75.44 12.56c-0.72-1.36-1.76-2.32-3.12-3.12-1.36-0.72-2.8-1.2-4.24-1.2-2.080 0-3.92 0.72-5.52 2.16-1.84 1.68-2.8 3.76-2.8 6.24 0 2.32 0.8 4.4 2.4 5.92 1.6 1.6 3.6 2.4 5.84 2.4 1.6 0 2.96-0.24 4.24-1.040 1.36-0.72 2.32-1.76 3.12-3.12 0.72-1.36 1.12-2.8 1.12-4.24 0.16-1.28-0.24-2.64-1.040-4zM71.44 20c-0.8 0.88-1.92 1.36-3.2 1.36s-2.24-0.4-3.12-1.28c-0.8-0.8-1.28-1.92-1.28-3.36 0-1.36 0.4-2.48 1.28-3.36 0.8-0.96 1.84-1.36 3.12-1.36s2.24 0.48 3.2 1.28c0.8 0.8 1.28 2 1.28 3.36-0.080 1.36-0.48 2.56-1.28 3.36z"></path>
<path d="M78 20.56c0.64 0 1.2 0.24 1.68 0.64s0.64 1.040 0.64 1.6-0.24 1.2-0.64 1.68-1.040 0.64-1.68 0.64c-0.64 0-1.2-0.24-1.68-0.64s-0.64-1.040-0.64-1.68c0-0.64 0.24-1.2 0.64-1.6s0.96-0.64 1.68-0.64z"></path>
</symbol>
<symbol id="icon-bubbles" viewBox="0 0 36 32">
<title>bubbles</title>
<path d="M34 28.161c0 1.422 0.813 2.653 2 3.256v0.498c-0.332 0.045-0.671 0.070-1.016 0.070-2.125 0-4.042-0.892-5.398-2.321-0.819 0.218-1.688 0.336-2.587 0.336-4.971 0-9-3.582-9-8s4.029-8 9-8c4.971 0 9 3.582 9 8 0 1.73-0.618 3.331-1.667 4.64-0.213 0.463-0.333 0.979-0.333 1.522zM16 0c8.702 0 15.781 5.644 15.995 12.672-1.537-0.685-3.237-1.047-4.995-1.047-2.986 0-5.807 1.045-7.942 2.943-2.214 1.968-3.433 4.607-3.433 7.432 0 1.396 0.298 2.747 0.867 3.993-0.163 0.004-0.327 0.007-0.492 0.007-0.849 0-1.682-0.054-2.495-0.158-3.437 3.437-7.539 4.053-11.505 4.144v-0.841c2.142-1.049 4-2.961 4-5.145 0-0.305-0.024-0.604-0.068-0.897-3.619-2.383-5.932-6.024-5.932-10.103 0-7.18 7.163-13 16-13z"></path>
</symbol>
<symbol id="icon-user" viewBox="0 0 32 32">
<title>user</title>
<path d="M18 22.082v-1.649c2.203-1.241 4-4.337 4-7.432 0-4.971 0-9-6-9s-6 4.029-6 9c0 3.096 1.797 6.191 4 7.432v1.649c-6.784 0.555-12 3.888-12 7.918h28c0-4.030-5.216-7.364-12-7.918z"></path>
</symbol>
<symbol id="icon-cog" viewBox="0 0 32 32">
<title>cog</title>
<path d="M29.181 19.070c-1.679-2.908-0.669-6.634 2.255-8.328l-3.145-5.447c-0.898 0.527-1.943 0.829-3.058 0.829-3.361 0-6.085-2.742-6.085-6.125h-6.289c0.008 1.044-0.252 2.103-0.811 3.070-1.679 2.908-5.411 3.897-8.339 2.211l-3.144 5.447c0.905 0.515 1.689 1.268 2.246 2.234 1.676 2.903 0.672 6.623-2.241 8.319l3.145 5.447c0.895-0.522 1.935-0.82 3.044-0.82 3.35 0 6.067 2.725 6.084 6.092h6.289c-0.003-1.034 0.259-2.080 0.811-3.038 1.676-2.903 5.399-3.894 8.325-2.219l3.145-5.447c-0.899-0.515-1.678-1.266-2.232-2.226zM16 22.479c-3.578 0-6.479-2.901-6.479-6.479s2.901-6.479 6.479-6.479c3.578 0 6.479 2.901 6.479 6.479s-2.901 6.479-6.479 6.479z"></path>
</symbol>
<symbol id="icon-rocket" viewBox="0 0 32 32">
<title>rocket</title>
<path d="M22 2l-10 10h-6l-6 8c0 0 6.357-1.77 10.065-0.94l-10.065 12.94 13.184-10.255c1.839 4.208-1.184 10.255-1.184 10.255l8-6v-6l10-10 2-10-10 2z"></path>
</symbol>
<symbol id="icon-lab" viewBox="0 0 32 32">
<title>lab</title>
<path d="M29.884 25.14l-9.884-16.47v-6.671h1c0.55 0 1-0.45 1-1s-0.45-1-1-1h-10c-0.55 0-1 0.45-1 1s0.45 1 1 1h1v6.671l-9.884 16.47c-2.264 3.773-0.516 6.86 3.884 6.86h20c4.4 0 6.148-3.087 3.884-6.86zM7.532 20l6.468-10.779v-7.221h4v7.221l6.468 10.779h-16.935z"></path>
</symbol>
<symbol id="icon-menu" viewBox="0 0 32 32">
<title>menu</title>
<path d="M2 6h28v6h-28zM2 14h28v6h-28zM2 22h28v6h-28z"></path>
</symbol>
<symbol id="icon-link" viewBox="0 0 32 32">
<title>link</title>
<path d="M13.757 19.868c-0.416 0-0.832-0.159-1.149-0.476-2.973-2.973-2.973-7.81 0-10.783l6-6c1.44-1.44 3.355-2.233 5.392-2.233s3.951 0.793 5.392 2.233c2.973 2.973 2.973 7.81 0 10.783l-2.743 2.743c-0.635 0.635-1.663 0.635-2.298 0s-0.635-1.663 0-2.298l2.743-2.743c1.706-1.706 1.706-4.481 0-6.187-0.826-0.826-1.925-1.281-3.094-1.281s-2.267 0.455-3.094 1.281l-6 6c-1.706 1.706-1.706 4.481 0 6.187 0.635 0.635 0.635 1.663 0 2.298-0.317 0.317-0.733 0.476-1.149 0.476z"></path>
<path d="M8 31.625c-2.037 0-3.952-0.793-5.392-2.233-2.973-2.973-2.973-7.81 0-10.783l2.743-2.743c0.635-0.635 1.664-0.635 2.298 0s0.635 1.663 0 2.298l-2.743 2.743c-1.706 1.706-1.706 4.481 0 6.187 0.826 0.826 1.925 1.281 3.094 1.281s2.267-0.455 3.094-1.281l6-6c1.706-1.706 1.706-4.481 0-6.187-0.635-0.635-0.635-1.663 0-2.298s1.663-0.635 2.298 0c2.973 2.973 2.973 7.81 0 10.783l-6 6c-1.44 1.44-3.355 2.233-5.392 2.233z"></path>
</symbol>
<symbol id="icon-eye" viewBox="0 0 32 32">
<title>eye</title>
<path d="M16 6c-6.979 0-13.028 4.064-16 10 2.972 5.936 9.021 10 16 10s13.027-4.064 16-10c-2.972-5.936-9.021-10-16-10zM23.889 11.303c1.88 1.199 3.473 2.805 4.67 4.697-1.197 1.891-2.79 3.498-4.67 4.697-2.362 1.507-5.090 2.303-7.889 2.303s-5.527-0.796-7.889-2.303c-1.88-1.199-3.473-2.805-4.67-4.697 1.197-1.891 2.79-3.498 4.67-4.697 0.122-0.078 0.246-0.154 0.371-0.228-0.311 0.854-0.482 1.776-0.482 2.737 0 4.418 3.582 8 8 8s8-3.582 8-8c0-0.962-0.17-1.883-0.482-2.737 0.124 0.074 0.248 0.15 0.371 0.228v0zM16 13c0 1.657-1.343 3-3 3s-3-1.343-3-3 1.343-3 3-3 3 1.343 3 3z"></path>
</symbol>
<symbol id="icon-cross" viewBox="0 0 32 32">
<title>cross</title>
<path d="M31.708 25.708c-0-0-0-0-0-0l-9.708-9.708 9.708-9.708c0-0 0-0 0-0 0.105-0.105 0.18-0.227 0.229-0.357 0.133-0.356 0.057-0.771-0.229-1.057l-4.586-4.586c-0.286-0.286-0.702-0.361-1.057-0.229-0.13 0.048-0.252 0.124-0.357 0.228 0 0-0 0-0 0l-9.708 9.708-9.708-9.708c-0-0-0-0-0-0-0.105-0.104-0.227-0.18-0.357-0.228-0.356-0.133-0.771-0.057-1.057 0.229l-4.586 4.586c-0.286 0.286-0.361 0.702-0.229 1.057 0.049 0.13 0.124 0.252 0.229 0.357 0 0 0 0 0 0l9.708 9.708-9.708 9.708c-0 0-0 0-0 0-0.104 0.105-0.18 0.227-0.229 0.357-0.133 0.355-0.057 0.771 0.229 1.057l4.586 4.586c0.286 0.286 0.702 0.361 1.057 0.229 0.13-0.049 0.252-0.124 0.357-0.229 0-0 0-0 0-0l9.708-9.708 9.708 9.708c0 0 0 0 0 0 0.105 0.105 0.227 0.18 0.357 0.229 0.356 0.133 0.771 0.057 1.057-0.229l4.586-4.586c0.286-0.286 0.362-0.702 0.229-1.057-0.049-0.13-0.124-0.252-0.229-0.357z"></path>
</symbol>
<symbol id="icon-checkmark" viewBox="0 0 32 32">
<title>checkmark</title>
<path d="M27 4l-15 15-7-7-5 5 12 12 20-20z"></path>
</symbol>
<symbol id="icon-google2" viewBox="0 0 32 32">
<title>google2</title>
<path d="M29 0h-26c-1.65 0-3 1.35-3 3v26c0 1.65 1.35 3 3 3h26c1.65 0 3-1.35 3-3v-26c0-1.65-1.35-3-3-3zM16.238 28c-6.631 0-12-5.369-12-12s5.369-12 12-12c3.238 0 5.95 1.181 8.037 3.138l-3.256 3.138c-0.894-0.856-2.45-1.85-4.781-1.85-4.1 0-7.438 3.394-7.438 7.575s3.344 7.575 7.438 7.575c4.75 0 6.531-3.413 6.806-5.175h-6.806v-4.113h11.331c0.1 0.6 0.188 1.2 0.188 1.988 0.006 6.856-4.588 11.725-11.519 11.725z"></path>
</symbol>
<symbol id="icon-facebook2" viewBox="0 0 32 32">
<title>facebook2</title>
<path d="M29 0h-26c-1.65 0-3 1.35-3 3v26c0 1.65 1.35 3 3 3h13v-14h-4v-4h4v-2c0-3.306 2.694-6 6-6h4v4h-4c-1.1 0-2 0.9-2 2v2h6l-1 4h-5v14h9c1.65 0 3-1.35 3-3v-26c0-1.65-1.35-3-3-3z"></path>
</symbol>
<symbol id="icon-telegram" viewBox="0 0 32 32">
<title>telegram</title>
<path d="M16 0c-8.838 0-16 7.162-16 16s7.162 16 16 16 16-7.163 16-16-7.163-16-16-16zM23.863 10.969l-2.625 12.369c-0.181 0.881-0.712 1.087-1.45 0.681l-4-2.956-1.919 1.869c-0.225 0.219-0.4 0.4-0.8 0.4-0.519 0-0.431-0.194-0.606-0.688l-1.363-4.475-3.956-1.231c-0.856-0.262-0.862-0.85 0.194-1.269l15.412-5.95c0.7-0.319 1.381 0.169 1.113 1.25z"></path>
</symbol>
<symbol id="icon-vk" viewBox="0 0 32 32">
<title>vk</title>
<path d="M29 0h-26c-1.65 0-3 1.35-3 3v26c0 1.65 1.35 3 3 3h26c1.65 0 3-1.35 3-3v-26c0-1.65-1.35-3-3-3zM25.919 22.4l-2.925 0.044c0 0-0.631 0.125-1.456-0.444-1.094-0.75-2.125-2.706-2.931-2.45-0.813 0.256-0.788 2.012-0.788 2.012s0.006 0.375-0.181 0.575c-0.2 0.219-0.6 0.262-0.6 0.262h-1.306c0 0-2.888 0.175-5.431-2.475-2.775-2.887-5.225-8.619-5.225-8.619s-0.144-0.375 0.013-0.556c0.175-0.206 0.644-0.219 0.644-0.219l3.131-0.019c0 0 0.294 0.050 0.506 0.206 0.175 0.125 0.269 0.369 0.269 0.369s0.506 1.281 1.175 2.438c1.306 2.256 1.919 2.75 2.362 2.513 0.644-0.35 0.45-3.194 0.45-3.194s0.012-1.031-0.325-1.488c-0.262-0.356-0.756-0.463-0.969-0.488-0.175-0.025 0.113-0.431 0.488-0.619 0.563-0.275 1.556-0.294 2.731-0.281 0.913 0.006 1.181 0.069 1.538 0.15 1.081 0.262 0.712 1.269 0.712 3.681 0 0.775-0.137 1.863 0.419 2.219 0.238 0.156 0.825 0.025 2.294-2.469 0.694-1.181 1.219-2.569 1.219-2.569s0.113-0.25 0.288-0.356c0.181-0.106 0.425-0.075 0.425-0.075l3.294-0.019c0 0 0.988-0.119 1.15 0.331 0.169 0.469-0.369 1.563-1.712 3.356-2.206 2.944-2.456 2.669-0.619 4.369 1.75 1.625 2.113 2.419 2.175 2.519 0.712 1.2-0.813 1.294-0.813 1.294z"></path>
</symbol>
</defs>
</svg>
