<!-- Generated by IcoMoon.io -->
<svg version="1.1" xmlns="http://www.w3.org/2000/svg" width="180" height="132" viewBox="0 0 80 32">
<title>logo</title>
<path d="M24.48 24.8c-1.12 2.24-3.12 4.88-6.4 7.2l-17.68-19.6c-0.56-0.64-0.48-1.76 0.16-2.32l12.8-9.28c0.72-0.48 1.76-0.32 2.24 0.4l1.2 1.84h-0.88v21.76h8.56z"></path>
<path d="M26.16 19.52c0 0.32-0.080 0.8-0.24 1.28h-5.92v-13.12l5.2 7.68c0.16 0.24 0.4 0.64 0.48 1.040 0.24 0.72 0.4 1.44 0.48 2.080 0 0 0.16 0.4 0 1.040z"></path>
<path d="M41.36 12.56c-0.72-1.36-1.76-2.32-3.12-3.12-1.36-0.72-2.8-1.2-4.24-1.2-2.080 0-3.92 0.72-5.52 2.16-1.76 1.6-2.72 3.6-2.8 6 0 0.080 0 0.16 0 0.32 0 0.96 0.16 1.92 0.48 2.8 0.4 1.2 1.040 2.24 2 3.12 1.6 1.6 3.6 2.4 5.84 2.4 1.6 0 2.96-0.24 4.24-1.040 1.36-0.72 2.32-1.76 3.12-3.12 0.72-1.36 1.12-2.8 1.12-4.24 0-1.36-0.4-2.72-1.12-4.080zM37.2 20c-0.8 0.88-1.92 1.36-3.2 1.36s-2.24-0.4-3.12-1.28c-0.8-0.8-1.28-1.92-1.28-3.36 0-1.36 0.4-2.48 1.28-3.36 0.8-0.8 1.92-1.36 3.2-1.36s2.24 0.48 3.12 1.28c0.8 0.8 1.28 2 1.28 3.36-0.080 1.36-0.48 2.56-1.28 3.36z"></path>
<path d="M55.28 8.72v1.76c-0.72-0.72-1.6-1.36-2.4-1.68s-1.68-0.48-2.64-0.48c-2 0-3.68 0.64-5.12 2.080-1.6 1.52-2.32 3.6-2.32 6.16 0 2.32 0.72 4.24 2.24 5.84s3.28 2.32 5.44 2.32c0.96 0 1.76-0.24 2.56-0.48s1.6-0.8 2.24-1.52c0 1.36-0.080 2.24-0.4 2.8-0.32 0.48-0.8 0.88-1.44 1.28-0.64 0.32-1.52 0.48-2.64 0.48-0.88 0-1.6-0.080-2.16-0.32s-1.12-0.56-1.52-1.040h-4.4c0.4 1.12 1.040 2 1.68 2.8 0.64 0.72 1.68 1.36 2.64 1.76 1.040 0.4 2.32 0.56 3.92 0.56 2.96 0 5.2-0.8 6.64-2.56 1.12-1.28 1.68-3.28 1.68-5.92v-13.84h-4zM54.4 19.76c-0.8 0.8-1.84 1.28-3.12 1.28s-2.32-0.4-3.2-1.28-1.28-1.92-1.28-3.28c0-1.28 0.48-2.32 1.28-3.2 0.72-0.88 1.84-1.28 3.12-1.28s2.32 0.32 3.2 1.2c0.8 0.88 1.28 1.92 1.28 3.28-0.080 1.36-0.48 2.48-1.28 3.28z"></path>
<path d="M75.44 12.56c-0.72-1.36-1.76-2.32-3.12-3.12-1.36-0.72-2.8-1.2-4.24-1.2-2.080 0-3.92 0.72-5.52 2.16-1.84 1.68-2.8 3.76-2.8 6.24 0 2.32 0.8 4.4 2.4 5.92 1.6 1.6 3.6 2.4 5.84 2.4 1.6 0 2.96-0.24 4.24-1.040 1.36-0.72 2.32-1.76 3.12-3.12 0.72-1.36 1.12-2.8 1.12-4.24 0.16-1.28-0.24-2.64-1.040-4zM71.44 20c-0.8 0.88-1.92 1.36-3.2 1.36s-2.24-0.4-3.12-1.28c-0.8-0.8-1.28-1.92-1.28-3.36 0-1.36 0.4-2.48 1.28-3.36 0.8-0.96 1.84-1.36 3.12-1.36s2.24 0.48 3.2 1.28c0.8 0.8 1.28 2 1.28 3.36-0.080 1.36-0.48 2.56-1.28 3.36z"></path>
<path d="M78 20.56c0.64 0 1.2 0.24 1.68 0.64s0.64 1.040 0.64 1.6-0.24 1.2-0.64 1.68-1.040 0.64-1.68 0.64c-0.64 0-1.2-0.24-1.68-0.64s-0.64-1.040-0.64-1.68c0-0.64 0.24-1.2 0.64-1.6s0.96-0.64 1.68-0.64z"></path>
</svg>
